<svg xmlns="http://www.w3.org/2000/svg" width="2356" height="1232"><g><title>background</title><rect id="canvas_background" width="2358" height="1234" x="-1" y="-1" fill="none"/><g id="canvasGrid" width="100%" height="100%" x="0" y="0" display="none"><rect width="100%" height="100%" x="0" y="0" fill="url(#gridpattern)" stroke-width="0"/></g></g><g><title>Layer 1</title><ellipse id="svg_8" cx="364.764" cy="198.263" fill="none" stroke="#fff" stroke-width="46" rx="73.999" ry="74.316"/><ellipse id="svg_9" cx="432.543" cy="670.432" fill="none" stroke="#fff" stroke-width="44" rx="59.555" ry="59.809"/><ellipse id="svg_10" cx="600.323" cy="315.939" fill="none" stroke="#fff" stroke-width="33" rx="49.555" ry="49.766"/><ellipse id="svg_141" cx="1757.01" cy="234.869" fill="none" stroke="#fff" stroke-width="44" rx="59.555" ry="59.809"/><ellipse id="svg_144" cx="2068.127" cy="246.151" fill="none" stroke="#fff" stroke-width="46" rx="99.555" ry="99.981"/><ellipse id="svg_145" cx="1785.9" cy="565.986" fill="none" stroke="#fff" stroke-width="44" rx="59.555" ry="59.809"/><ellipse id="svg_146" cx="739.215" cy="823.784" fill="none" stroke="#fff" stroke-width="44" rx="59.555" ry="59.809"/><ellipse id="svg_147" cx="238.095" cy="927.165" fill="none" stroke="#fff" stroke-width="46" rx="73.999" ry="74.316"/><ellipse id="svg_148" cx="514.766" cy="1068.217" fill="none" stroke="#fff" stroke-width="44" rx="59.555" ry="59.809"/><ellipse id="svg_149" cx="153.649" cy="464.83" fill="none" stroke="#fff" stroke-width="33" rx="49.555" ry="49.766"/><ellipse id="svg_150" cx="1954.791" cy="801.546" fill="none" stroke="#fff" stroke-width="44" rx="59.555" ry="59.809"/><ellipse id="svg_151" cx="2103.683" cy="1070.61" fill="none" stroke="#fff" stroke-width="46" rx="99.555" ry="99.981"/><ellipse id="svg_152" cx="1641.453" cy="1030.438" fill="none" stroke="#fff" stroke-width="44" rx="59.555" ry="59.809"/><ellipse id="svg_153" cx="2205.907" cy="554.89" fill="none" stroke="#fff" stroke-width="44" rx="59.555" ry="59.809"/></g></svg>