<svg xmlns="http://www.w3.org/2000/svg" width="1420" height="1687"><g><title>background</title><rect id="canvas_background" width="3157.611" height="3750.954" x="-1" y="-1" fill="none"/><g id="canvasGrid" display="none"><rect id="svg_2" width="100%" height="100%" x="0" y="0" fill="url(#gridpattern)" stroke-width="0"/></g></g><g><title>Layer 1</title><ellipse id="svg_1" cx="138.5" cy="91" fill="none" stroke="#fff" stroke-width="22" rx="31" ry="31"/><ellipse id="svg_4" cx="219.5" cy="238" fill="none" stroke="#fff" stroke-width="22" rx="31" ry="31"/><ellipse id="svg_5" cx="82.5" cy="295" fill="none" stroke="#fff" stroke-width="22" rx="31" ry="31"/><ellipse id="svg_6" cx="346.5" cy="344" fill="none" stroke="#fff" stroke-width="22" rx="31" ry="31"/><ellipse id="svg_18" cx="1245.5" cy="110" fill="none" stroke="#fff" stroke-width="22" rx="31" ry="31"/><ellipse id="svg_19" cx="1172.5" cy="250" fill="none" stroke="#fff" stroke-width="22" rx="31" ry="31"/><ellipse id="svg_20" cx="1324.5" cy="295" fill="none" stroke="#fff" stroke-width="22" rx="31" ry="31"/><path id="svg_3" d="m127.5,127l-34,137"/><path id="svg_13" d="m127.5,127l-34,137"/><line id="svg_29" x1="127.5" x2="93.5" y1="127" y2="264" fill="none" stroke="#fff" stroke-linecap="null" stroke-linejoin="null" stroke-width="22" transform="rotate(0.468016, 110.5, 195.5)"/><line id="svg_31" x1="48.5" x2="-35.5" y1="281" y2="236" fill="none" stroke="#fff" stroke-linecap="null" stroke-linejoin="null" stroke-width="22"/><line id="svg_50" x1="1233.5" x2="1188.5" y1="138" y2="225" fill="none" fill-opacity="null" stroke="#fff" stroke-linecap="null" stroke-linejoin="null" stroke-opacity="null" stroke-width="22"/><line id="svg_51" x1="1181.5" x2="1215.5" y1="282" y2="408" fill="none" fill-opacity="null" stroke="#fff" stroke-linecap="null" stroke-linejoin="null" stroke-opacity="null" stroke-width="22"/><ellipse id="svg_7" cx="346.5" cy="344" fill="none" stroke="#fff" stroke-width="22" rx="31" ry="31"/><ellipse id="svg_8" cx="192.5" cy="492" fill="none" stroke="#fff" stroke-width="22" rx="31" ry="31"/><ellipse id="svg_9" cx="192.5" cy="492" fill="none" stroke="#fff" stroke-width="22" rx="31" ry="31"/><ellipse id="svg_10" cx="60.5" cy="641" fill="none" stroke="#fff" stroke-width="22" rx="31" ry="31"/><ellipse id="svg_11" cx="60.5" cy="641" fill="none" stroke="#fff" stroke-width="22" rx="31" ry="31"/><ellipse id="svg_12" cx="257.5" cy="689" fill="none" stroke="#fff" stroke-width="22" rx="31" ry="31"/><line id="svg_14" x1="322.5" x2="216.5" y1="367" y2="470" fill="none" fill-opacity="null" stroke="#fff" stroke-linecap="null" stroke-linejoin="null" stroke-opacity="null" stroke-width="22"/><line id="svg_15" x1="49.5" x2="-45.5" y1="610" y2="296" fill="none" fill-opacity="null" stroke="#fff" stroke-linecap="null" stroke-linejoin="null" stroke-opacity="null" stroke-width="22"/><line id="svg_16" x1="200.5" x2="245.5" y1="525" y2="658" fill="none" fill-opacity="null" stroke="#fff" stroke-linecap="null" stroke-linejoin="null" stroke-opacity="null" stroke-width="22"/><ellipse id="svg_17" cx="126.5" cy="823" fill="none" stroke="#fff" stroke-width="22" rx="31" ry="31"/><ellipse id="svg_21" cx="126.5" cy="823" fill="none" stroke="#fff" stroke-width="22" rx="31" ry="31"/><ellipse id="svg_22" cx="226.5" cy="951" fill="none" stroke="#fff" stroke-width="22" rx="31" ry="31"/><ellipse id="svg_23" cx="107.5" cy="1127" fill="none" stroke="#fff" stroke-width="22" rx="31" ry="31"/><ellipse id="svg_24" cx="321.5" cy="1098" fill="none" stroke="#fff" stroke-width="22" rx="31" ry="31"/><ellipse id="svg_25" cx="176.5" cy="1464" fill="none" stroke="#fff" stroke-width="22" rx="31" ry="31"/><ellipse id="svg_26" cx="287.5" cy="1277" fill="none" stroke="#fff" stroke-width="22" rx="31" ry="31"/><ellipse id="svg_28" cx="127.5" cy="1634" fill="none" stroke="#fff" stroke-width="22" rx="31" ry="31"/><ellipse id="svg_30" cx="333.5" cy="1533" fill="none" stroke="#fff" stroke-width="22" rx="31" ry="31"/><line id="svg_34" x1="114.5" x2="170.5" y1="1162" y2="1433" fill="none" fill-opacity="null" stroke="#fff" stroke-linecap="null" stroke-linejoin="null" stroke-opacity="null" stroke-width="22" transform="rotate(0.408347, 142.5, 1297.5)"/><line id="svg_36" x1="240.5" x2="303.5" y1="976" y2="1070" fill="none" fill-opacity="null" stroke="#fff" stroke-linecap="null" stroke-linejoin="null" stroke-opacity="null" stroke-width="22"/><line id="svg_37" x1="318.5" x2="293.5" y1="1126" y2="1240" fill="none" fill-opacity="null" stroke="#fff" stroke-linecap="null" stroke-linejoin="null" stroke-opacity="null" stroke-width="22"/><line id="svg_39" x1="103.5" x2="-29.5" y1="847" y2="993" fill="none" fill-opacity="null" stroke="#fff" stroke-linecap="null" stroke-linejoin="null" stroke-opacity="null" stroke-width="22"/><line id="svg_40" x1="159.5" x2="304.5" y1="1622" y2="1546" fill="none" fill-opacity="null" stroke="#fff" stroke-linecap="null" stroke-linejoin="null" stroke-opacity="null" stroke-width="22"/><line id="svg_41" x1="93.5" x2="-37.5" y1="1626" y2="1571" fill="none" fill-opacity="null" stroke="#fff" stroke-linecap="null" stroke-linejoin="null" stroke-opacity="null" stroke-width="22"/><ellipse id="svg_42" cx="1077.5" cy="513" fill="none" stroke="#fff" stroke-width="22" rx="31" ry="31"/><ellipse id="svg_43" cx="1238.5" cy="694" fill="none" stroke="#fff" stroke-width="22" rx="31" ry="31"/><ellipse id="svg_44" cx="1117.5" cy="858" fill="none" stroke="#fff" stroke-width="22" rx="31" ry="31"/><ellipse id="svg_45" cx="1338.5" cy="470" fill="none" stroke="#fff" stroke-width="22" rx="31" ry="31"/><ellipse id="svg_46" cx="1336.5" cy="896" fill="none" stroke="#fff" stroke-width="22" rx="31" ry="31"/><ellipse id="svg_47" cx="1167.5" cy="1153" fill="none" stroke="#fff" stroke-width="22" rx="31" ry="31"/><ellipse id="svg_48" cx="1326.5" cy="1444" fill="none" stroke="#fff" stroke-width="22" rx="31" ry="31"/><ellipse id="svg_49" cx="1150.5" cy="1344" fill="none" stroke="#fff" stroke-width="22" rx="31" ry="31"/><ellipse id="svg_53" cx="1050.5" cy="1585" fill="none" stroke="#fff" stroke-width="22" rx="31" ry="31"/><ellipse id="svg_54" cx="1343.5" cy="1620" fill="none" stroke="#fff" stroke-width="22" rx="31" ry="31"/><line id="svg_55" x1="1177.5" x2="1300.5" y1="1361" y2="1436" fill="none" fill-opacity="null" stroke="#fff" stroke-linecap="null" stroke-linejoin="null" stroke-opacity="null" stroke-width="22"/><line id="svg_56" x1="1331.5" x2="1340.5" y1="1475" y2="1591" fill="none" fill-opacity="null" stroke="#fff" stroke-linecap="null" stroke-linejoin="null" stroke-opacity="null" stroke-width="22"/><line id="svg_57" x1="1200.5" x2="1447.5" y1="1158" y2="1226" fill="none" fill-opacity="null" stroke="#fff" stroke-linecap="null" stroke-linejoin="null" stroke-opacity="null" stroke-width="22"/><line id="svg_58" x1="1121.5" x2="1160.5" y1="886" y2="1115" fill="none" fill-opacity="null" stroke="#fff" stroke-linecap="null" stroke-linejoin="null" stroke-opacity="null" stroke-width="22"/><line id="svg_59" x1="1252.5" x2="1322.5" y1="726" y2="871" fill="none" fill-opacity="null" stroke="#fff" stroke-linecap="null" stroke-linejoin="null" stroke-opacity="null" stroke-width="22"/><line id="svg_60" x1="1270.5" x2="1440.5" y1="681" y2="606" fill="none" fill-opacity="null" stroke="#fff" stroke-linecap="null" stroke-linejoin="null" stroke-opacity="null" stroke-width="22"/><line id="svg_61" x1="1209.5" x2="1309.5" y1="401" y2="458" fill="none" fill-opacity="null" stroke="#fff" stroke-linecap="null" stroke-linejoin="null" stroke-opacity="null" stroke-width="22"/></g></svg>